<svg width="24" height="20" viewBox="0 0 24 20" fill="none" xmlns="http://www.w3.org/2000/svg">
<path d="M22.8759 6.134C22.8197 6.07777 22.753 6.03325 22.6795 6.00302C22.606 5.9728 22.5272 5.95746 22.4477 5.95792H18.4L22.4957 1.86016C22.597 1.75963 22.6774 1.64011 22.7324 1.50844C22.7874 1.37677 22.8159 1.23554 22.8162 1.09284C22.8165 0.95015 22.7887 0.808801 22.7342 0.676892C22.6798 0.544983 22.5999 0.425105 22.4991 0.32414C22.3982 0.223174 22.2785 0.143107 22.1466 0.0885152C22.0148 0.0339236 21.8735 0.00588366 21.7308 0.00600887C21.5881 0.00613409 21.4468 0.0344128 21.3151 0.0892358C21.1833 0.144059 21.0637 0.224341 20.9631 0.325483L15.3306 5.95792H7.69733L2.06689 0.319487C1.96623 0.218344 1.84661 0.138062 1.71487 0.0832395C1.58312 0.0284166 1.44186 0.000125631 1.29916 4.1751e-07C1.15647 -0.000124795 1.01515 0.0279151 0.883317 0.0825068C0.751479 0.137098 0.631709 0.217178 0.530875 0.318143C0.430041 0.419109 0.350129 0.538975 0.295709 0.670884C0.241289 0.802793 0.213435 0.944142 0.213746 1.08684C0.214057 1.22953 0.242528 1.37076 0.297522 1.50243C0.352517 1.6341 0.432954 1.75362 0.534228 1.85415L4.63 5.95193H0.60026C0.441061 5.95193 0.288379 6.01516 0.175808 6.12774C0.0632379 6.24031 0 6.39299 0 6.55219V9.73556C0 9.89476 0.0632379 10.0474 0.175808 10.16C0.288379 10.2726 0.441061 10.3358 0.60026 10.3358H1.91683L4.08176 19.3397C4.12753 19.528 4.23526 19.6955 4.38767 19.8153C4.54008 19.935 4.7283 20.0001 4.92212 20H18.3279C18.5214 20.0008 18.7095 19.9362 18.8617 19.8167C19.0138 19.6973 19.1212 19.5299 19.1663 19.3417L21.3612 10.3358H22.4517C22.6109 10.3358 22.7636 10.2726 22.8762 10.16C22.9887 10.0474 23.052 9.89476 23.052 9.73556V6.55418C23.0508 6.39642 22.9875 6.24548 22.8759 6.134ZM7.93743 16.9767C7.93743 17.1614 7.86407 17.3385 7.73349 17.4691C7.60291 17.5996 7.4258 17.673 7.24113 17.673C7.05646 17.673 6.87935 17.5996 6.74877 17.4691C6.61819 17.3385 6.54483 17.1614 6.54483 16.9767V11.0221C6.54483 10.8374 6.61819 10.6603 6.74877 10.5297C6.87935 10.3992 7.05646 10.3258 7.24113 10.3258C7.4258 10.3258 7.60291 10.3992 7.73349 10.5297C7.86407 10.6603 7.93743 10.8374 7.93743 11.0221V16.9767ZM12.2273 17.677C12.2273 17.8627 12.1535 18.0408 12.0222 18.1722C11.8908 18.3035 11.7127 18.3773 11.527 18.3773C11.3412 18.3773 11.1631 18.3035 11.0318 18.1722C10.9005 18.0408 10.8267 17.8627 10.8267 17.677V11.0321C10.8267 10.8464 10.9005 10.6683 11.0318 10.5369C11.1631 10.4056 11.3412 10.3318 11.527 10.3318C11.7127 10.3318 11.8908 10.4056 12.0222 10.5369C12.1535 10.6683 12.2273 10.8464 12.2273 11.0321V17.677ZM16.5011 16.9747C16.5011 17.066 16.4831 17.1565 16.4481 17.2409C16.4131 17.3252 16.3618 17.4018 16.2971 17.4663C16.2324 17.5308 16.1556 17.5819 16.0711 17.6167C15.9867 17.6515 15.8962 17.6693 15.8048 17.669C15.7135 17.6693 15.623 17.6515 15.5385 17.6167C15.4541 17.5819 15.3773 17.5308 15.3126 17.4663C15.2479 17.4018 15.1966 17.3252 15.1616 17.2409C15.1266 17.1565 15.1085 17.066 15.1085 16.9747V11.0181C15.1085 10.9268 15.1266 10.8363 15.1616 10.752C15.1966 10.6676 15.2479 10.591 15.3126 10.5265C15.3773 10.462 15.4541 10.4109 15.5385 10.3761C15.623 10.3413 15.7135 10.3235 15.8048 10.3238C15.8962 10.3235 15.9867 10.3413 16.0711 10.3761C16.1556 10.4109 16.2324 10.462 16.2971 10.5265C16.3618 10.591 16.4131 10.6676 16.4481 10.752C16.4831 10.8363 16.5011 10.9268 16.5011 11.0181V16.9747Z" fill="#302E2B"/>
</svg>
