<svg width="23" height="20" viewBox="0 0 23 20" fill="none" xmlns="http://www.w3.org/2000/svg">
<path d="M11.0047 20L1.85548 10.8527C1.83945 10.8367 1.82343 10.8187 1.8054 10.8027L1.04413 9.86911C0.140513 8.49326 -0.194546 6.82067 0.109392 5.20292C0.41333 3.58517 1.33259 2.14826 2.67395 1.19419C4.0153 0.240114 5.67429 -0.156811 7.30221 0.0868585C8.93013 0.330528 10.4002 1.19581 11.4034 2.50082C12.4115 1.18034 13.8963 0.306708 15.5402 0.0667321C17.1842 -0.173244 18.8567 0.23948 20.2003 1.21666C21.5438 2.19384 22.4517 3.65791 22.7299 5.2958C23.008 6.93369 22.6342 8.61539 21.6886 9.9813L20.9353 10.8688C20.8351 10.9669 20.735 11.0691 20.6268 11.1533L11.0047 20ZM3.45414 9.31218L11.0668 16.9249L19.1603 9.48047C19.6543 9.05929 20.0421 8.52772 20.2924 7.92882C20.5428 7.32991 20.6486 6.68048 20.6013 6.03308C20.5541 5.38568 20.3551 4.7585 20.0204 4.2023C19.6857 3.64611 19.2248 3.17652 18.6749 2.83154C18.1251 2.48655 17.5017 2.27587 16.8553 2.21655C16.2089 2.15722 15.5576 2.25092 14.9542 2.49005C14.3507 2.72918 13.812 3.10703 13.3817 3.59302C12.9514 4.07901 12.6415 4.65948 12.4772 5.28746C12.4248 5.53393 12.2894 5.75494 12.0935 5.91351C11.8977 6.07208 11.6534 6.15861 11.4014 6.15861C11.1494 6.15861 10.9051 6.07208 10.7093 5.91351C10.5134 5.75494 10.378 5.53393 10.3256 5.28746C9.76266 3.4484 8.12192 2.19631 6.31892 2.19631C5.50469 2.19597 4.70848 2.43593 4.03002 2.88609C3.35155 3.33626 2.82102 3.97663 2.50488 4.72698C2.18874 5.47733 2.10106 6.30429 2.25281 7.10425C2.40457 7.90421 2.78901 8.64159 3.35799 9.22403L3.45414 9.31218Z" fill="#302E2B"/>
</svg>
