<svg width="73" height="75" viewBox="0 0 73 75" fill="none" xmlns="http://www.w3.org/2000/svg">
<path d="M32.5306 25.4556H12.3714V0.0260315H1.86438V35.0521H32.5306V25.4556Z" fill="#302E2B"/>
<path d="M61.7322 43.7588C61.7173 43.7246 61.6575 43.6844 61.6291 43.6881C61.6069 43.6951 61.5866 43.7071 61.5698 43.7233C61.5531 43.7394 61.5404 43.7592 61.5327 43.7811C61.5048 43.8632 61.4953 43.9503 61.505 44.0363C61.5611 44.3265 61.6306 44.6145 61.6978 44.9024C61.7146 44.9587 61.7351 45.0139 61.7591 45.0676C61.7697 45.0577 61.7794 45.047 61.7883 45.0356C61.8047 45.0012 61.8192 44.966 61.8316 44.9299C61.9105 44.6793 61.9244 44.4128 61.872 44.1554C61.8386 44.0189 61.7918 43.8861 61.7322 43.7588Z" fill="#302E2B"/>
<path d="M54.395 50.9781C54.2882 51.4357 54.3906 51.8546 54.6409 52.2556C54.6484 52.2393 54.6543 52.2326 54.6543 52.2259C54.693 51.8408 54.6619 51.4519 54.5624 51.0778C54.5605 51.0591 54.5542 51.041 54.544 51.0251C54.5338 51.0093 54.5201 50.9959 54.5038 50.9863C54.4876 50.9766 54.4693 50.9708 54.4504 50.9694C54.4315 50.968 54.4126 50.971 54.395 50.9781Z" fill="#302E2B"/>
<path d="M55.35 56.1767L71.4906 39.9717H58.3032L48.5486 49.7788V39.9717H39.1154V74.9985H48.5486V62.5248L60.1758 75H73L55.35 56.1767ZM57.3205 47.0251C57.3607 47.0142 57.4032 47.0149 57.4429 47.0273C57.4827 47.0397 57.518 47.0632 57.5447 47.095C57.5721 47.1291 57.5951 47.1663 57.6134 47.2059C57.7629 47.5593 57.9871 47.8688 58.2 48.1851C58.357 48.4177 58.5141 48.6501 58.6716 48.8822C58.6865 48.9045 58.7029 48.9261 58.7186 48.9477L58.741 48.9425C58.7276 48.8487 58.7209 48.7535 58.7007 48.6605C58.6357 48.351 58.5595 48.0415 58.5722 47.7245C58.5862 47.4611 58.6157 47.1988 58.6603 46.9388C58.6979 46.766 58.7995 46.6137 58.945 46.5125C59.0355 46.4381 59.2141 46.4611 59.3456 46.5482C59.5309 46.6702 59.6445 46.854 59.7737 47.0266C59.8163 47.0854 59.8544 47.1471 59.9075 47.2282C59.9337 47.1635 59.9561 47.1189 59.9703 47.072C59.9972 46.9834 60.0241 46.8942 60.045 46.8041C60.0827 46.649 60.173 46.5116 60.3006 46.415C60.3532 46.3748 60.4161 46.3501 60.4821 46.3437C60.5482 46.3373 60.6147 46.3493 60.6742 46.3785C60.8024 46.4308 60.9271 46.4909 61.0478 46.5586C61.2307 46.6574 61.4298 46.7229 61.6359 46.7521C61.9236 46.7945 62.0588 46.6375 62.1448 46.3882C62.1691 46.3409 62.1737 46.286 62.1574 46.2354C62.1412 46.1847 62.1055 46.1426 62.0581 46.1181C61.7592 45.9113 61.594 45.5973 61.4603 45.2684C61.3026 44.8936 61.2035 44.4969 61.1666 44.0921C61.1513 43.9769 61.1597 43.8597 61.1913 43.7478C61.2229 43.6359 61.277 43.5315 61.3504 43.4411C61.3799 43.4043 61.4164 43.3737 61.4579 43.3511C61.4994 43.3285 61.545 43.3143 61.592 43.3095C61.6391 43.3046 61.6866 43.3092 61.7318 43.3228C61.7771 43.3365 61.8192 43.359 61.8556 43.389C62.0372 43.5244 62.1066 43.7186 62.1545 43.9277C62.2669 44.4171 62.2212 44.9293 62.0237 45.3912C62.0072 45.4192 62 45.4517 62.0031 45.484C62.0062 45.5163 62.0194 45.5468 62.0409 45.5713C62.1181 45.6726 62.2036 45.7674 62.2964 45.8547C62.3239 45.8812 62.3571 45.9012 62.3934 45.913C62.4298 45.9248 62.4684 45.9282 62.5063 45.923C62.5442 45.9178 62.5803 45.904 62.6121 45.8828C62.6438 45.8615 62.6703 45.8334 62.6895 45.8004C62.7596 45.7103 62.8121 45.6078 62.8442 45.4984C62.948 45.0735 63.0444 44.6457 63.1296 44.2164C63.22 43.7625 63.2918 43.3057 63.3747 42.8503C63.3949 42.7402 63.4569 42.6807 63.5242 42.6881C63.5699 42.6979 63.6108 42.7234 63.6396 42.7601C63.6685 42.7968 63.6834 42.8425 63.6818 42.889C63.677 42.9815 63.6658 43.0734 63.6482 43.1643C63.5219 43.8659 63.3986 44.5683 63.2619 45.2677C63.2269 45.5001 63.1439 45.7228 63.0183 45.9217C62.898 46.0958 62.756 46.2446 62.5221 46.2803C62.5313 46.4443 62.4878 46.6069 62.3981 46.7446C62.2307 46.9968 61.9804 47.0831 61.6934 47.0884C61.3908 47.0936 61.1143 46.9916 60.8468 46.8651C60.7721 46.8294 60.7026 46.7863 60.6278 46.7528C60.5001 46.6962 60.4253 46.7305 60.385 46.8629C60.2901 47.1746 60.2767 47.5052 60.3461 47.8235C60.3608 47.887 60.3717 47.9514 60.379 48.0162C60.388 48.1263 60.3544 48.1873 60.2774 48.2178C60.2369 48.231 60.1933 48.2309 60.1529 48.2175C60.1126 48.2041 60.0776 48.1781 60.0532 48.1434C59.9703 48.0296 59.8948 47.909 59.8193 47.79C59.6938 47.5921 59.578 47.3882 59.4457 47.1948C59.3763 47.1007 59.2966 47.0146 59.2081 46.9381C59.1154 46.8518 59.0482 46.8733 59.0101 46.9931C58.9138 47.273 58.8856 47.5716 58.9279 47.8644C58.9966 48.2825 59.0878 48.6977 59.1857 49.1106C59.2544 49.3986 59.3568 49.6783 59.4337 49.9648C59.4573 50.0442 59.4573 50.1287 59.4337 50.2081C59.4269 50.2338 59.4128 50.2571 59.3932 50.2752C59.3736 50.2933 59.3492 50.3055 59.3229 50.3103C59.2966 50.3151 59.2694 50.3124 59.2446 50.3025C59.2198 50.2926 59.1983 50.2758 59.1827 50.2542C59.0636 50.1201 58.9545 49.9777 58.8561 49.8279C58.3804 49.1077 57.9071 48.3854 57.4364 47.6613C57.3703 47.552 57.3111 47.4386 57.2593 47.322C57.242 47.2847 57.2338 47.2439 57.2353 47.2029C57.2338 47.1323 57.2346 47.0564 57.3205 47.0266V47.0251ZM55.0594 51.7125C55.0442 51.7644 55.0332 51.8174 55.0265 51.871C55.0265 51.996 55.0347 52.1217 55.0265 52.243C55.0214 52.3702 55.0034 52.4966 54.9727 52.6202C54.9619 52.6636 54.9404 52.7035 54.91 52.7363C54.8796 52.7691 54.8414 52.7937 54.7989 52.8079C54.7565 52.822 54.7111 52.8253 54.667 52.8173C54.6229 52.8094 54.5815 52.7905 54.5468 52.7623C54.4908 52.723 54.444 52.6723 54.4093 52.6135C54.1609 52.2081 54.016 51.7483 53.9871 51.2743C53.9782 51.1627 53.9945 51.0506 54.0347 50.9461C54.0749 50.8415 54.138 50.7473 54.2195 50.6701C54.2292 50.6612 54.2381 50.6471 54.2501 50.6433C54.404 50.5898 54.558 50.5355 54.7134 50.4856C54.728 50.4792 54.7438 50.476 54.7598 50.4764C54.7758 50.4768 54.7914 50.4807 54.8057 50.4878C54.82 50.4949 54.8325 50.505 54.8424 50.5175C54.8523 50.53 54.8592 50.5445 54.8628 50.56C54.9749 50.7996 55.087 51.0384 55.2111 51.2713C55.276 51.3877 55.351 51.4982 55.4352 51.6017C55.5047 51.6909 55.5712 51.685 55.6273 51.5868C55.6612 51.5217 55.6863 51.4524 55.702 51.3807C55.7881 50.9896 55.832 50.5906 55.8328 50.1902C55.8368 50.0474 55.7972 49.9068 55.7192 49.787C55.4263 49.3115 55.1423 48.8309 54.8539 48.3532C54.8075 48.2788 54.7545 48.2044 54.6962 48.1173C54.6738 48.1486 54.6566 48.1702 54.6417 48.1918C54.4399 48.499 54.2441 48.81 54.0334 49.1114C53.943 49.2265 53.843 49.3337 53.7345 49.4321C53.6971 49.4693 53.6426 49.5065 53.5962 49.4648C53.5748 49.4488 53.5569 49.4286 53.5435 49.4055C53.5302 49.3824 53.5216 49.3568 53.5184 49.3303C53.5152 49.3039 53.5174 49.277 53.5249 49.2514C53.5323 49.2258 53.5449 49.202 53.5619 49.1813C53.8518 48.723 54.144 48.2664 54.4384 47.8116C54.455 47.7905 54.4644 47.7647 54.4653 47.738C54.4663 47.7113 54.4587 47.6849 54.4436 47.6627C54.2366 47.2758 54.0297 46.8897 53.8279 46.5006C53.7532 46.3518 53.6867 46.194 53.6209 46.0385C53.6023 45.9988 53.599 45.9536 53.6117 45.9116C53.6244 45.8697 53.6521 45.8338 53.6897 45.8108C53.725 45.7916 53.7664 45.7865 53.8054 45.7966C53.8445 45.8067 53.8781 45.8312 53.8996 45.8652C53.9443 45.9235 53.9831 45.986 54.0155 46.0519C54.2068 46.4195 54.3951 46.787 54.5856 47.1553C54.5968 47.1769 54.61 47.1973 54.6252 47.2163C54.694 47.3011 54.7343 47.3086 54.7986 47.2208C54.9577 47.0035 55.1072 46.7796 55.2581 46.5571C55.4666 46.2506 55.6721 45.9425 55.8798 45.636C55.8989 45.6072 55.9268 45.5852 55.9594 45.5736C55.992 45.5619 56.0276 45.5611 56.0607 45.5713C56.0913 45.5775 56.1181 45.5956 56.1353 45.6216C56.1526 45.6475 56.1588 45.6792 56.1526 45.7097C56.1474 45.7928 56.1247 45.8739 56.0861 45.9478C55.9135 46.2253 55.7289 46.4954 55.5503 46.7662C55.3538 47.0675 55.158 47.3689 54.9667 47.6732C54.9565 47.6925 54.9505 47.7138 54.9492 47.7356C54.9479 47.7574 54.9513 47.7793 54.9592 47.7997C55.0511 47.9812 55.1445 48.1635 55.2499 48.3376C55.7095 49.0972 56.1616 49.8621 56.6405 50.6091C56.9678 51.1203 57.3362 51.6046 57.6867 52.1009C57.7524 52.1947 57.8227 52.2847 57.8892 52.3777C57.9096 52.4126 57.9182 52.4532 57.9138 52.4933C57.9093 52.5335 57.8921 52.5712 57.8645 52.6009C57.8539 52.6136 57.8408 52.6242 57.826 52.6319C57.8112 52.6396 57.7951 52.6443 57.7785 52.6457C57.7619 52.6472 57.7452 52.6454 57.7293 52.6403C57.7134 52.6353 57.6987 52.6272 57.6859 52.6165C57.6211 52.5682 57.563 52.5114 57.5133 52.4476C57.0339 51.8535 56.5945 51.2284 56.1982 50.5764C56.1899 50.5637 56.1795 50.5518 56.1571 50.5213C56.1571 50.5883 56.1518 50.6359 56.1488 50.6835C56.1234 51.0771 56.0741 51.464 55.8888 51.8219C55.7603 52.0734 55.4853 52.1299 55.2753 51.9417C55.2028 51.8851 55.1416 51.8063 55.0594 51.717V51.7125Z" fill="#302E2B"/>
<path d="M17.1792 39.9062C7.38578 39.9062 0 47.4284 0 57.4021C0 67.3759 7.38578 74.8988 17.1792 74.8988C26.9726 74.8988 34.3584 67.3766 34.3584 57.4021C34.3584 47.4276 26.9726 39.9062 17.1792 39.9062ZM17.1792 66.114C12.6793 66.114 9.15451 62.2874 9.15451 57.4021C9.15451 52.5168 12.6793 48.691 17.1792 48.691C21.6791 48.691 25.2039 52.5176 25.2039 57.4021C25.2039 62.2867 21.6791 66.117 17.1792 66.117V66.114Z" fill="#302E2B"/>
<path d="M54.1627 34.9956C63.9568 34.9956 71.3426 27.4742 71.3426 17.4997C71.3426 7.52515 63.9568 0 54.1627 0C44.3685 0 36.9843 7.52143 36.9843 17.4959C36.9843 27.4704 44.3693 34.9956 54.1627 34.9956ZM54.1627 8.78777C58.6634 8.78777 62.1881 12.6143 62.1881 17.4997C62.1881 22.385 58.6634 26.2078 54.1627 26.2078C49.662 26.2078 46.1395 22.3805 46.1395 17.4959C46.1395 12.6114 49.6628 8.78405 54.1627 8.78405V8.78777Z" fill="#302E2B"/>
</svg>
