<svg width="18" height="18" viewBox="0 0 18 18" fill="none" xmlns="http://www.w3.org/2000/svg">
<path d="M17.7825 16.0096L17.3285 15.5557L17.2526 15.4797L17.2001 15.4273L16.8077 15.0384L12.8777 11.1682C13.8955 9.72408 14.3372 7.95186 14.1161 6.19902C13.8949 4.44618 13.027 2.83917 11.6824 1.69311C10.3378 0.547063 8.61359 -0.0553477 6.84785 0.0040029C5.08212 0.0633535 3.40225 0.780185 2.13765 2.01394C0.873053 3.24769 0.114967 4.90936 0.0120429 6.67309C-0.0908814 8.43682 0.46878 10.1754 1.58129 11.5479C2.69379 12.9203 4.27889 13.8277 6.02573 14.092C7.77258 14.3563 9.55517 13.9586 11.0239 12.9767L14.9792 16.8705L15.4259 17.3118L15.4711 17.357L15.9558 17.8399C16.2669 18.151 16.927 17.9954 17.4334 17.489C17.9398 16.9826 18.0935 16.3189 17.7825 16.0096ZM11.042 10.2223C11.0167 10.253 10.9914 10.2838 10.9642 10.3127C10.9118 10.3742 10.8594 10.4339 10.8033 10.4936L10.6333 10.6636C9.7022 11.5534 8.46329 12.0491 7.17534 12.0471C6.46226 12.0476 5.75729 11.8959 5.10752 11.6021C4.45775 11.3084 3.87815 10.8794 3.40745 10.3437C2.93674 9.80805 2.58577 9.17811 2.37797 8.49598C2.17018 7.81384 2.11035 7.09521 2.20249 6.38811C2.29462 5.681 2.5366 5.0017 2.91225 4.39558C3.2879 3.78947 3.78858 3.2705 4.38083 2.87335C4.97308 2.4762 5.64326 2.21002 6.34661 2.09258C7.04995 1.97513 7.77026 2.00914 8.45942 2.19233L8.64027 2.24479L8.77591 2.28819L8.97847 2.36233L9.05623 2.39308C9.14847 2.43106 9.23709 2.47085 9.32571 2.51245H9.34198C9.55236 2.61393 9.75541 2.72996 9.94966 2.85968L10.0003 2.89405C10.2223 3.04628 10.4315 3.21624 10.6261 3.40225C10.6839 3.45651 10.74 3.51438 10.7961 3.57225C10.8521 3.63013 10.9046 3.68981 10.957 3.75311L11.0348 3.84535C11.7749 4.74272 12.1797 5.86969 12.1797 7.03291C12.1797 8.19613 11.7749 9.3231 11.0348 10.2205L11.042 10.2223Z" fill="#302E2B" fill-opacity="0.25"/>
</svg>
